<svg version="1.1" preserveAspectRatio="none" xmlns="http://www.w3.org/2000/svg" width="500" height="500" viewBox="0 0 500 500"><rect width="100%" height="100%" fill="#F2F2F2" fill-opacity="1"/><svg viewBox="74.4908 132.6119 339.3827 254.6699" width="333" height="249.88037604745324" x="83.5px" y="125.0598px" xmlns="http://www.w3.org/2000/svg" xmlns:xlink="http://www.w3.org/1999/xlink" preserveAspectRatio="none"><defs></defs><style>.companyName {fill:#1E1E1E;fill-opacity:1;}.icon1 {fill:#F56E56;fill-opacity:1;}.icon2 {fill:#1E1E1E;fill-opacity:1;}.icon3 {fill:#D0D0D0;fill-opacity:1;}.icon3-str {stroke:#D0D0D0;stroke-opacity:1;}.text {fill:#1e1e1e;fill-opacity:1;}</style><g opacity="1" transform="rotate(0 176.6498 367.2818)">
<svg width="135.0646" height="20" x="176.6498" y="367.2818" version="1.1" preserveAspectRatio="none" viewBox="4.56 -29.68 201.76 29.88">
  <g transform="matrix(1 0 0 1 0 0)" class="text"><path id="id-6izo4zJp8" d="M4.56 0L4.56-28L7.52-28L7.52-2.56L23.20-2.56L23.20 0L4.56 0Z M46.76-10.52L46.72-9.64L29.12-9.64Q29.36-6.36 31.64-4.34Q33.92-2.32 37.40-2.32L37.40-2.32Q39.36-2.32 41-3.02Q42.64-3.72 43.84-5.08L43.84-5.08L45.44-3.24Q44.04-1.56 41.94-0.68Q39.84 0.20 37.32 0.20L37.32 0.20Q34.08 0.20 31.58-1.18Q29.08-2.56 27.68-5Q26.28-7.44 26.28-10.52L26.28-10.52Q26.28-13.60 27.62-16.04Q28.96-18.48 31.30-19.84Q33.64-21.20 36.56-21.20L36.56-21.20Q39.48-21.20 41.80-19.84Q44.12-18.48 45.44-16.06Q46.76-13.64 46.76-10.52L46.76-10.52ZM36.56-18.76Q33.52-18.76 31.46-16.82Q29.40-14.88 29.12-11.76L29.12-11.76L44.04-11.76Q43.76-14.88 41.70-16.82Q39.64-18.76 36.56-18.76L36.56-18.76Z M60.52-21.20Q64.64-21.20 66.84-19.14Q69.04-17.08 69.04-13.04L69.04-13.04L69.04 0L66.32 0L66.32-3.28Q65.36-1.64 63.50-0.72Q61.64 0.20 59.08 0.20L59.08 0.20Q55.56 0.20 53.48-1.48Q51.40-3.16 51.40-5.92L51.40-5.92Q51.40-8.60 53.34-10.24Q55.28-11.88 59.52-11.88L59.52-11.88L66.20-11.88L66.20-13.16Q66.20-15.88 64.68-17.30Q63.16-18.72 60.24-18.72L60.24-18.72Q58.24-18.72 56.40-18.06Q54.56-17.40 53.24-16.24L53.24-16.24L51.96-18.36Q53.56-19.72 55.80-20.46Q58.04-21.20 60.52-21.20L60.52-21.20ZM59.52-2.04Q61.92-2.04 63.64-3.14Q65.36-4.24 66.20-6.32L66.20-6.32L66.20-9.76L59.60-9.76Q54.20-9.76 54.20-6L54.20-6Q54.20-4.16 55.60-3.10Q57.00-2.04 59.52-2.04L59.52-2.04Z M80.68-16.92Q81.68-19.04 83.66-20.12Q85.64-21.20 88.56-21.20L88.56-21.20L88.56-18.44L87.88-18.48Q84.56-18.48 82.68-16.44Q80.80-14.40 80.80-10.72L80.80-10.72L80.80 0L77.96 0L77.96-21.04L80.68-21.04L80.68-16.92Z M105.60-21.20Q109.56-21.20 111.90-18.90Q114.24-16.60 114.24-12.20L114.24-12.20L114.24 0L111.40 0L111.40-11.92Q111.40-15.20 109.76-16.92Q108.12-18.64 105.08-18.64L105.08-18.64Q101.68-18.64 99.70-16.62Q97.72-14.60 97.72-11.04L97.72-11.04L97.72 0L94.88 0L94.88-21.04L97.60-21.04L97.60-17.16Q98.76-19.08 100.82-20.14Q102.88-21.20 105.60-21.20L105.60-21.20Z M144.24-28L147.16-28L147.16 0L144.24 0L144.24-12.92L126.72-12.92L126.72 0L123.76 0L123.76-28L126.72-28L126.72-15.52L144.24-15.52L144.24-28Z M173-21.04L175.84-21.04L175.84 0L173.12 0L173.12-3.84Q172-1.92 170.04-0.86Q168.08 0.20 165.56 0.20L165.56 0.20Q161.44 0.20 159.06-2.10Q156.68-4.40 156.68-8.84L156.68-8.84L156.68-21.04L159.52-21.04L159.52-9.12Q159.52-5.80 161.16-4.08Q162.80-2.36 165.84-2.36L165.84-2.36Q169.16-2.36 171.08-4.38Q173-6.40 173-10L173-10L173-21.04Z M195.84-21.20Q198.80-21.20 201.20-19.86Q203.60-18.52 204.96-16.08Q206.32-13.64 206.32-10.52L206.32-10.52Q206.32-7.40 204.96-4.96Q203.60-2.52 201.20-1.16Q198.80 0.20 195.84 0.20L195.84 0.20Q193.20 0.20 191.10-0.92Q189.00-2.04 187.72-4.16L187.72-4.16L187.72 0L185.00 0L185.00-29.68L187.84-29.68L187.84-17.04Q189.16-19.08 191.22-20.14Q193.28-21.20 195.84-21.20L195.84-21.20ZM195.64-2.32Q197.84-2.32 199.64-3.34Q201.44-4.36 202.46-6.24Q203.48-8.12 203.48-10.52L203.48-10.52Q203.48-12.92 202.46-14.80Q201.44-16.68 199.64-17.70Q197.84-18.72 195.64-18.72L195.64-18.72Q193.40-18.72 191.62-17.70Q189.84-16.68 188.82-14.80Q187.80-12.92 187.80-10.52L187.80-10.52Q187.80-8.12 188.82-6.24Q189.84-4.36 191.62-3.34Q193.40-2.32 195.64-2.32L195.64-2.32Z"/></g>
</svg>
</g><g opacity="1" transform="rotate(0 74.4908 293.2818)">
<svg width="339.3827" height="50" x="74.4908" y="293.2818" version="1.1" preserveAspectRatio="none" viewBox="0.32 -26.76 219.92000000000002 32.400000000000006">
  <g transform="matrix(1 0 0 1 0 0)" class="companyName"><path id="id-D6z1nYkh9" d="M0.32-24.88L23-24.88L23-22.52L14.84-22.52L14.84 0L8.40 0L8.40-22.52L0.32-22.52L0.32-24.88Z M32.16-15.80L32.16-11.12L40.80-11.12L40.80-15.80Q40.80-16.56 40.58-16.80Q40.36-17.04 39.56-17.04L39.56-17.04L33.40-17.04Q32.60-17.04 32.38-16.80Q32.16-16.56 32.16-15.80L32.16-15.80ZM29.16-19.40L29.16-19.40L43.64-19.40Q46.80-19.40 46.80-16.24L46.80-16.24L46.80-8.76L32.16-8.76L32.16-3.60Q32.16-2.80 32.38-2.58Q32.60-2.36 33.40-2.36L33.40-2.36L39.48-2.36Q40.28-2.36 40.50-2.58Q40.72-2.80 40.72-3.60L40.72-3.60L40.72-5.96L46.72-5.96L46.72-3.16Q46.72 0 43.56 0L43.56 0L29.16 0Q26 0 26-3.16L26-3.16L26-16.24Q26-19.40 29.16-19.40Z M71.80-16.24L71.80-12.64L65.76-12.64L65.76-15.80Q65.76-16.56 65.54-16.80Q65.32-17.04 64.52-17.04L64.52-17.04L59.24-17.04Q58.44-17.04 58.22-16.80Q58-16.56 58-15.80L58-15.80L58-3.60Q58-2.80 58.22-2.58Q58.44-2.36 59.24-2.36L59.24-2.36L64.52-2.36Q65.32-2.36 65.54-2.58Q65.76-2.80 65.76-3.60L65.76-3.60L65.76-6.68L71.80-6.68L71.80-3.16Q71.80 0 68.64 0L68.64 0L55 0Q51.84 0 51.84-3.16L51.84-3.16L51.84-16.24Q51.84-19.40 55-19.40L55-19.40L68.64-19.40Q71.80-19.40 71.80-16.24L71.80-16.24Z M85.20-19.40L85.20-19.40L94-19.40Q97.16-19.40 97.16-16.24L97.16-16.24L97.16 0L91 0L91-15.80Q91-16.56 90.78-16.80Q90.56-17.04 89.76-17.04L89.76-17.04L84.36-17.04Q82.96-17.04 82.96-15.76L82.96-15.76L82.96-14.60L82.92-14.60L82.92 0L76.72 0L76.72-26.76L82.92-26.76L82.92-18.08Q83.40-19.40 85.20-19.40Z M117.56-3.60L117.56-3.60L117.56-10.12Q117.56-10.88 117.34-11.12Q117.12-11.36 116.32-11.36L116.32-11.36L105.52-11.36Q102.36-11.36 102.36-14.52L102.36-14.52L102.36-21.72Q102.36-24.88 105.52-24.88L105.52-24.88L120.72-24.88Q123.88-24.88 123.88-21.72L123.88-21.72L123.88-17.28L117.44-17.28L117.44-21.28Q117.44-22.08 117.20-22.30Q116.96-22.52 116.20-22.52L116.20-22.52L110.08-22.52Q109.28-22.52 109.06-22.30Q108.84-22.08 108.84-21.28L108.84-21.28L108.84-14.96Q108.84-14.16 109.06-13.94Q109.28-13.72 110.08-13.72L110.08-13.72L120.84-13.72Q124.00-13.72 124.00-10.56L124.00-10.56L124.00-3.16Q124.00 0 120.84 0L120.84 0L105.64 0Q102.48 0 102.48-3.16L102.48-3.16L102.48-7.60L108.92-7.60L108.92-3.60Q108.92-2.80 109.14-2.58Q109.36-2.36 110.16-2.36L110.16-2.36L116.32-2.36Q117.12-2.36 117.34-2.58Q117.56-2.80 117.56-3.60Z M144.04-3.60L144.04-3.60L144.04-15.80Q144.04-16.56 143.80-16.80Q143.56-17.04 142.80-17.04L142.80-17.04L137.20-17.04Q135.76-17.04 135.76-15.72L135.76-15.72L135.76-3.64Q135.76-2.36 137.20-2.36L137.20-2.36L142.80-2.36Q143.56-2.36 143.80-2.58Q144.04-2.80 144.04-3.60ZM138-19.40L138-19.40L147.04-19.40Q150.20-19.40 150.20-16.24L150.20-16.24L150.20-3.16Q150.20 0 147.04 0L147.04 0L138 0Q136.24 0 135.76-1.20L135.76-1.20L135.76 5.64L129.56 5.64L129.56-19.40L135.68-19.40L135.68-18Q136.16-19.40 138-19.40Z M162.96-2.36L162.96-2.36L168.36-2.36Q169.80-2.36 169.80-3.64L169.80-3.64L169.80-15.76Q169.80-17.04 168.36-17.04L168.36-17.04L162.96-17.04Q162.16-17.04 161.94-16.80Q161.72-16.56 161.72-15.80L161.72-15.80L161.72-3.60Q161.72-2.80 161.94-2.58Q162.16-2.36 162.96-2.36ZM169.80-18.08L169.80-19.40L175.96-19.40L175.96 0L169.80 0L169.80-1.32Q169.32 0 167.52 0L167.52 0L158.72 0Q155.56 0 155.56-3.16L155.56-3.16L155.56-16.24Q155.56-19.40 158.72-19.40L158.72-19.40L167.52-19.40Q169.32-19.40 169.80-18.08L169.80-18.08Z M192.08-19.44L192.08-19.44L195.12-19.44L195.12-16.80L190.92-16.80Q188.08-16.80 188.08-13.76L188.08-13.76L188.08 0L181.88 0L181.88-19.40L188.08-19.40L188.08-17.04Q188.88-19.44 192.08-19.44Z M204.60 0L198.40 0L198.40-26.76L204.60-26.76L204.60 0ZM213.48-19.40L220.24-19.40L211.80-9.80L220.24 0L213.44 0L205.28-9.80L213.48-19.40Z"/></g>
</svg>
</g><g opacity="1" transform="rotate(0 196.6686 132.6119)">
<svg width="95.0271" height="120.6699" x="196.6686" y="132.6119" version="1.1" preserveAspectRatio="none" viewBox="36.999507904052734 20.000003814697266 126.00028991699219 160.0010223388672">
  <g transform="matrix(1 0 0 1 0 0)"><g><path d="M158.169 141.3c-5.689-15.893-19.063-36.248-38.417-43.217 5.135-3.941 9.206-9.398 11.606-15.582a1.983 1.983 0 0 0 .942.156c5.223-.437 10.609-1.145 14.018-4.504 3.17-3.122 3.459-7.321 3.3-11.394-.104-2.698-.393-5.782-2.519-8.255-.973-1.134-2.297-2.061-3.871-2.755-6.44-25.646-31.148-36.459-51.368-35.713-18.577.716-41.935 11.481-46.626 39.461-.058.343.001.669.107.976-.271.214-.556.408-.811.644-3.78 3.494-5.627 8.997-4.823 14.362.454 3.025 1.666 5.663 3.505 7.63 2.291 2.451 5.773 4.017 9.802 4.41.792.077 1.579.11 2.362.11 2.228 0 4.406-.272 6.539-.576a29.855 29.855 0 0 0 2.659 3.693c3.268 3.854 7.801 7.089 13.47 9.648-11.141 5.403-22.666 15.61-28.871 25.793-5.336 8.403-17.461 32.648-9.589 43.789 2.457 3.477 6.477 5.221 11.998 5.22 2.085 0 4.399-.264 6.91-.762l.067 1.46c.005.079.013.157.025.236.369 2.243 2.497 3.871 5.061 3.871h72.295c2.563 0 4.691-1.628 5.061-3.871a2.33 2.33 0 0 0 .025-.236l.09-1.968c11.06-.927 17.293-3.46 20.165-8.2 3.767-6.219.711-15.468-3.112-24.426zm-74.993-38.897c5.121 1.71 10.283 2.585 15.222 2.585 5.144-.002 10.046-.933 14.401-2.806a31.442 31.442 0 0 0 2.759-1.369c.151.092.294.195.472.246.051.015.1.037.151.051-.389 5.038-3.2 9.93-7.428 12.697-4.547 2.977-10.708 3.503-15.696 1.343-4.987-2.159-8.814-7.012-9.749-12.36a1.144 1.144 0 0 0-.15-.375l.018-.012zm1.457-64.722a2.03 2.03 0 0 0 .516-.133c3.486-1.415 7.182-2.106 10.92-2.106 7.643 0 15.451 2.889 21.932 8.383 3.533 2.995 6.352 6.778 8.345 10.964-20.476.464-35.153-2.954-53.586-12.438 3.415-2.561 7.34-4.122 11.873-4.67zm47.427 20.823c1.388-.117 2.781-.192 4.147-.152a73.118 73.118 0 0 1 1.184 19.614c-1.52.295-3.14.48-4.77.624.093-.358.196-.714.278-1.076 1.414-6.258 1.032-12.858-.839-19.01zm11.986 2.617c1.284 1.495 1.466 3.593 1.551 5.793.143 3.643-.16 6.462-2.104 8.376-.94.927-2.198 1.578-3.64 2.054a75.451 75.451 0 0 0-1.144-18.76c2.35.398 4.276 1.301 5.337 2.537zM92.015 24.055c25.561-1.025 41.59 14.231 46.681 30.462-.043-.005-.084-.015-.127-.02-2.689-.336-5.34-.142-7.92.103-2.25-5.308-5.655-10.118-10.046-13.84-10.723-9.089-24.768-11.774-36.72-7.035-6.151.796-11.454 3.296-15.877 7.392-.091.064-.166.14-.246.219a33.69 33.69 0 0 0-4.72 5.554c-2.234 3.286-3.871 7.041-4.921 11.011-2.733-.816-5.753-.713-8.53.239 5.062-24.095 25.817-33.447 42.426-34.085zm-48.33 50.827c-.6-4.006.803-8.251 3.576-10.813 1.175-1.088 2.604-1.85 4.108-2.293a58.622 58.622 0 0 0-.186 21.359c-2.075-.523-3.819-1.474-5.031-2.77-1.62-1.731-2.236-3.936-2.467-5.483zm10.032 8.648a56.149 56.149 0 0 1 .202-22.185 9.227 9.227 0 0 1 3.358.502 39.63 39.63 0 0 0-.22 10.758c.451 3.821 1.439 7.401 2.883 10.657-2.082.266-4.18.431-6.223.268zm13.928 4.618c-3.572-4.215-5.853-9.753-6.593-16.014-.971-8.21.965-16.588 5.317-22.988a30.974 30.974 0 0 1 3.184-3.932c18.596 9.769 33.349 13.647 53.139 13.647 1.711 0 3.474-.039 5.265-.095 1.914 5.741 2.347 11.975 1.016 17.863-2.196 9.716-9.004 18.092-17.764 21.859-8.468 3.643-19.35 3.263-29.858-1.035-5.912-2.42-10.523-5.551-13.706-9.305zM52.59 128.31c5.98-9.817 17.686-20.002 28.397-24.863 1.158 6.118 5.387 11.437 11.111 13.916a18.954 18.954 0 0 0 7.52 1.541c3.675 0 7.344-1.043 10.458-3.081 4.742-3.103 7.859-8.31 8.467-13.906 17.954 6.535 30.465 25.731 35.88 40.849 1.123 2.635 2.03 4.992 2.735 7.113-4.405-.479-10.58-.4-14.951.19l.841-18.372a5.803 5.803 0 0 0-1.369-4.545c-1.221-1.426-3.038-2.242-4.984-2.242H62.888c-1.944 0-3.761.817-4.982 2.242a5.802 5.802 0 0 0-1.369 4.545l.778 17.005c-3.933-.409-9.69-.8-14.133-.239 2.235-7.125 5.87-14.582 9.408-20.153zm-9.719 39.347c-2.571-3.639-2.237-9.869-.424-16.656 4.492-.797 11.346-.253 14.98.135l.88 19.227c-7.779 1.656-12.985.761-15.436-2.706zm93.069 8.323H63.645c-.632 0-.995-.298-1.075-.458l-2.018-44.105a1.963 1.963 0 0 0-.022-.218c-.102-.649.179-1.137.432-1.432.456-.532 1.157-.837 1.925-.837h73.808c.769 0 1.471.305 1.927.837.253.295.534.784.432 1.432a1.987 1.987 0 0 0-.022.218l-2.018 44.105c-.082.166-.469.458-1.074.458zm21.899-12.337c-2.071 3.42-7.346 5.404-16.538 6.23l.794-17.351c4.493-.665 11.53-.729 15.832-.121 1.453 5.24 1.397 8.792-.088 11.242zM88.54 93.642c-6.027-1.953-10.238-5.95-10.986-10.427-.11-.658.333-1.28.99-1.388a1.2 1.2 0 0 1 1.389.989c.593 3.533 4.262 6.883 9.351 8.533 5.27 1.709 12.034 1.581 17.23-.325 5.015-1.84 8.54-5.323 8.982-8.874a1.192 1.192 0 0 1 1.347-1.047c.662.082 1.13.685 1.048 1.346-.56 4.505-4.6 8.659-10.544 10.84-3.055 1.121-6.519 1.687-9.969 1.687-3.052-.001-6.095-.444-8.838-1.334zm-.718-22.456a2.011 2.011 0 0 1 3.907-.964 13.91 13.91 0 0 1 .294 5.017c.141.762-.192 1.622-.814 2.084a2.12 2.12 0 0 1-1.259.418c-.365 0-.731-.096-1.059-.289a2.012 2.012 0 0 1-.955-2.107 9.805 9.805 0 0 0-.114-4.159zm14.3 4.068.731-4.301c.187-1.096 1.248-1.817 2.32-1.646a2.01 2.01 0 0 1 1.647 2.318l-.731 4.301a2.01 2.01 0 0 1-3.967-.672zm-6.566 68.449c-2.689 1.269-5.095 4.029-6.131 7.034-.805 2.337-.718 4.585.248 6.504 1.031 2.046 3.035 3.543 5.795 4.331 1.347.383 2.799.57 4.232.57 2.482 0 4.907-.558 6.631-1.608v-.002c4.339-2.648 5.589-7.238 3.184-11.69-2.479-4.594-8.38-7.777-13.959-5.139zm8.679 13.398c-1.774 1.085-5.069 1.344-7.663.605-1.625-.463-2.799-1.272-3.305-2.274-.591-1.171-.346-2.489-.036-3.387.677-1.968 2.342-3.904 4.045-4.708a5.658 5.658 0 0 1 2.425-.545c2.609 0 5.086 1.759 6.274 3.96.646 1.195 1.769 4.207-1.74 6.349z" data-color="1" class="icon1"></path></g></g>
</svg>
</g></svg></svg>