<svg version="1.1" preserveAspectRatio="none" xmlns="http://www.w3.org/2000/svg" width="500" height="500" viewBox="0 0 500 500"><rect width="100%" height="100%" fill="#F3F3F3" fill-opacity="1"/><svg viewBox="146.5724 245.6127 390.6359 251.5095" width="333" height="214.40083591907452" x="83.5px" y="142.7996px" xmlns="http://www.w3.org/2000/svg" xmlns:xlink="http://www.w3.org/1999/xlink" preserveAspectRatio="none"><defs></defs><style>.companyName {fill:#333258;fill-opacity:1;}.icon1 {fill:#333258;fill-opacity:1;}.icon2 {fill:#F36958;fill-opacity:1;}.icon3 {fill:#8C94CC;fill-opacity:1;}.icon3-str {stroke:#8C94CC;stroke-opacity:1;}.text {fill:#333258;fill-opacity:1;}</style><g opacity="1" transform="rotate(0 266.0378 476.8222)">
<svg width="151.7051" height="20.3" x="266.0378" y="476.8222" version="1.1" preserveAspectRatio="none" viewBox="4.2 -29.68 223.60000000000002 29.92">
  <g transform="matrix(1 0 0 1 0 0)" class="text"><path id="id-6izo4zJp8" d="M4.20 0L4.20-28L8.20-28L8.20-3.48L23.36-3.48L23.36 0L4.20 0Z M50.28-10.48Q50.28-10.04 50.20-9.32L50.20-9.32L33-9.32Q33.36-6.52 35.46-4.82Q37.56-3.12 40.68-3.12L40.68-3.12Q44.48-3.12 46.80-5.68L46.80-5.68L48.92-3.20Q47.48-1.52 45.34-0.64Q43.20 0.24 40.56 0.24L40.56 0.24Q37.20 0.24 34.60-1.14Q32-2.52 30.58-5Q29.16-7.48 29.16-10.60L29.16-10.60Q29.16-13.68 30.54-16.16Q31.92-18.64 34.34-20.02Q36.76-21.40 39.80-21.40L39.80-21.40Q42.84-21.40 45.22-20.02Q47.60-18.64 48.94-16.16Q50.28-13.68 50.28-10.48L50.28-10.48ZM39.80-18.16Q37.04-18.16 35.18-16.48Q33.32-14.80 33-12.08L33-12.08L46.60-12.08Q46.28-14.76 44.42-16.46Q42.56-18.16 39.80-18.16L39.80-18.16Z M66.72-21.40Q71.12-21.40 73.46-19.24Q75.80-17.08 75.80-12.80L75.80-12.80L75.80 0L72.16 0L72.16-2.80Q71.20-1.32 69.42-0.54Q67.64 0.24 65.20 0.24L65.20 0.24Q61.64 0.24 59.50-1.48Q57.36-3.20 57.36-6L57.36-6Q57.36-8.80 59.40-10.50Q61.44-12.20 65.88-12.20L65.88-12.20L71.96-12.20L71.96-12.96Q71.96-15.44 70.52-16.76Q69.08-18.08 66.28-18.08L66.28-18.08Q64.40-18.08 62.60-17.46Q60.80-16.84 59.56-15.80L59.56-15.80L57.96-18.68Q59.60-20 61.88-20.70Q64.16-21.40 66.72-21.40L66.72-21.40ZM65.84-2.72Q68.04-2.72 69.64-3.70Q71.24-4.68 71.96-6.48L71.96-6.48L71.96-9.44L66.04-9.44Q61.16-9.44 61.16-6.16L61.16-6.16Q61.16-4.56 62.40-3.64Q63.64-2.72 65.84-2.72L65.84-2.72Z M90.60-17.64Q91.60-19.48 93.56-20.44Q95.52-21.40 98.32-21.40L98.32-21.40L98.32-17.68Q98-17.72 97.44-17.72L97.44-17.72Q94.32-17.72 92.54-15.86Q90.76-14 90.76-10.56L90.76-10.56L90.76 0L86.92 0L86.92-21.20L90.60-21.20L90.60-17.64Z M118.36-21.40Q122.40-21.40 124.78-19.06Q127.16-16.72 127.16-12.20L127.16-12.20L127.16 0L123.32 0L123.32-11.76Q123.32-14.84 121.84-16.40Q120.36-17.96 117.60-17.96L117.60-17.96Q114.48-17.96 112.68-16.14Q110.88-14.32 110.88-10.92L110.88-10.92L110.88 0L107.04 0L107.04-21.20L110.72-21.20L110.72-18Q111.88-19.64 113.86-20.52Q115.84-21.40 118.36-21.40L118.36-21.40Z M158.92-28L162.92-28L162.92 0L158.92 0L158.92-12.48L142.84-12.48L142.84 0L138.84 0L138.84-28L142.84-28L142.84-15.96L158.92-15.96L158.92-28Z M190.68-21.20L194.52-21.20L194.52 0L190.88 0L190.88-3.20Q189.72-1.56 187.82-0.66Q185.92 0.24 183.68 0.24L183.68 0.24Q179.44 0.24 177-2.10Q174.56-4.44 174.56-9L174.56-9L174.56-21.20L178.40-21.20L178.40-9.44Q178.40-6.36 179.88-4.78Q181.36-3.20 184.12-3.20L184.12-3.20Q187.16-3.20 188.92-5.04Q190.68-6.88 190.68-10.24L190.68-10.24L190.68-21.20Z M217.08-21.40Q220.16-21.40 222.60-20.04Q225.04-18.68 226.42-16.24Q227.80-13.80 227.80-10.60L227.80-10.60Q227.80-7.40 226.42-4.94Q225.04-2.48 222.60-1.12Q220.16 0.24 217.08 0.24L217.08 0.24Q214.72 0.24 212.76-0.68Q210.80-1.60 209.52-3.36L209.52-3.36L209.52 0L205.84 0L205.84-29.68L209.68-29.68L209.68-18Q210.96-19.68 212.88-20.54Q214.80-21.40 217.08-21.40L217.08-21.40ZM216.76-3.12Q218.80-3.12 220.42-4.06Q222.04-5 222.98-6.70Q223.92-8.40 223.92-10.60L223.92-10.60Q223.92-12.80 222.98-14.50Q222.04-16.20 220.42-17.12Q218.80-18.04 216.76-18.04L216.76-18.04Q214.76-18.04 213.12-17.12Q211.48-16.20 210.56-14.50Q209.64-12.80 209.64-10.60L209.64-10.60Q209.64-8.40 210.56-6.70Q211.48-5 213.12-4.06Q214.76-3.12 216.76-3.12L216.76-3.12Z"/></g>
</svg>
</g><g opacity="1" transform="rotate(0 146.5724 384.8222)">
<svg width="390.6359" height="70" x="146.5724" y="384.8222" version="1.1" preserveAspectRatio="none" viewBox="0.6 -31.64 228.8 41">
  <g transform="matrix(1 0 0 1 0 0)" class="companyName"><path id="id-D6z1nYkh9" d="M24.32-31.24Q24.80-31.24 25.10-30.94Q25.40-30.64 25.40-30.16L25.40-30.16Q25.40-29.68 25.10-29.38Q24.80-29.08 24.32-29.08L24.32-29.08L14.20-29.08L14.20-1.20Q14.20-0.68 13.86-0.34Q13.52 0 13 0L13 0Q12.48 0 12.14-0.34Q11.80-0.68 11.80-1.20L11.80-1.20L11.80-29.08L1.68-29.08Q1.20-29.08 0.90-29.38Q0.60-29.68 0.60-30.16L0.60-30.16Q0.60-30.64 0.90-30.94Q1.20-31.24 1.68-31.24L1.68-31.24L24.32-31.24Z M34.68-22.08Q37.60-22.08 39.90-20.70Q42.20-19.32 43.48-16.88Q44.76-14.44 44.76-11.32L44.76-11.32Q44.76-10.80 44.44-10.50Q44.12-10.20 43.60-10.20L43.60-10.20L26.84-10.20Q26.96-7.84 28.08-5.98Q29.20-4.12 31.08-3.08Q32.96-2.04 35.28-2.04L35.28-2.04Q36.84-2.04 38.42-2.58Q40-3.12 40.92-4L40.92-4Q41.32-4.32 41.76-4.32L41.76-4.32Q42.20-4.32 42.48-4.08L42.48-4.08Q42.92-3.72 42.92-3.24L42.92-3.24Q42.92-2.84 42.56-2.48L42.56-2.48Q41.28-1.32 39.22-0.56Q37.16 0.20 35.28 0.20L35.28 0.20Q32.12 0.20 29.66-1.22Q27.20-2.64 25.80-5.18Q24.40-7.72 24.40-10.92L24.40-10.92Q24.40-14.16 25.70-16.70Q27-19.24 29.34-20.66Q31.68-22.08 34.68-22.08L34.68-22.08ZM34.68-19.84Q31.56-19.84 29.42-17.76Q27.28-15.68 26.88-12.28L26.88-12.28L42.44-12.28Q42.16-15.68 40.04-17.76Q37.92-19.84 34.68-19.84L34.68-19.84Z M60.24-22.08Q62.80-22.08 64.92-21.08Q67.04-20.08 68.60-18.12L68.60-18.12Q68.88-17.72 68.88-17.44L68.88-17.44Q68.88-16.88 68.32-16.56L68.32-16.56Q68.04-16.32 67.68-16.32L67.68-16.32Q67.12-16.32 66.76-16.80L66.76-16.80Q64.20-19.84 60.24-19.84L60.24-19.84Q57.92-19.84 56.12-18.70Q54.32-17.56 53.34-15.52Q52.36-13.48 52.36-10.92L52.36-10.92Q52.36-8.40 53.44-6.36Q54.52-4.32 56.44-3.16Q58.36-2 60.84-2L60.84-2Q64.36-2 66.48-3.96L66.48-3.96Q66.84-4.32 67.32-4.32L67.32-4.32Q67.76-4.32 68.04-4.04L68.04-4.04Q68.44-3.68 68.44-3.16L68.44-3.16Q68.44-2.72 68.12-2.44L68.12-2.44Q66.72-1.16 64.84-0.46Q62.96 0.24 60.84 0.24L60.84 0.24Q57.76 0.24 55.28-1.22Q52.80-2.68 51.38-5.24Q49.96-7.80 49.96-10.92L49.96-10.92Q49.96-14.08 51.28-16.62Q52.60-19.16 54.96-20.62Q57.32-22.08 60.24-22.08L60.24-22.08Z M86.88-22.16Q89.80-22.16 92.10-20.96Q94.40-19.76 95.70-17.46Q97-15.16 97-11.96L97-11.96L97-1.20Q97-0.68 96.66-0.34Q96.32 0 95.80 0L95.80 0Q95.28 0 94.94-0.34Q94.60-0.68 94.60-1.20L94.60-1.20L94.60-11.96Q94.60-15.76 92.46-17.76Q90.32-19.76 86.88-19.76L86.88-19.76Q84.76-19.76 83.02-18.94Q81.28-18.12 80.28-16.66Q79.28-15.20 79.28-13.44L79.28-13.44L79.28-1.20Q79.28-0.68 78.96-0.34Q78.64 0 78.08 0L78.08 0Q77.56 0 77.22-0.34Q76.88-0.68 76.88-1.20L76.88-1.20L76.88-30.04Q76.88-30.60 77.22-30.92Q77.56-31.24 78.08-31.24L78.08-31.24Q78.64-31.24 78.96-30.92Q79.28-30.60 79.28-30.04L79.28-30.04L79.28-18.60Q80.64-20.28 82.60-21.22Q84.56-22.16 86.88-22.16L86.88-22.16Z M115.20-31.64Q118.12-31.64 120.56-30.24Q123-28.84 124.16-26.88L124.16-26.88Q124.32-26.60 124.32-26.24L124.32-26.24Q124.32-25.92 124.14-25.66Q123.96-25.40 123.64-25.24L123.64-25.24Q123.48-25.16 123.16-25.16L123.16-25.16Q122.44-25.16 122.04-25.76L122.04-25.76Q119.68-29.24 115.20-29.24L115.20-29.24Q111.88-29.24 110.02-27.74Q108.16-26.24 108.16-23.56L108.16-23.56Q108.16-21.32 110-19.80Q111.84-18.28 115.68-17.64L115.68-17.64Q120.72-16.80 123.04-14.54Q125.36-12.28 125.36-8.60L125.36-8.60Q125.36-5.84 124.14-3.80Q122.92-1.76 120.70-0.68Q118.48 0.40 115.56 0.40L115.56 0.40Q111.80 0.40 109.04-1.14Q106.28-2.68 104.92-5.36L104.92-5.36Q104.80-5.60 104.80-5.84L104.80-5.84Q104.80-6.32 105.14-6.64Q105.48-6.96 106.04-6.96L106.04-6.96Q106.84-6.96 107.20-6.20L107.20-6.20Q108.28-4.20 110.42-3.10Q112.56-2 115.56-2L115.56-2Q119-2 120.98-3.72Q122.96-5.44 122.96-8.60L122.96-8.60Q122.96-11.32 121.02-13.10Q119.08-14.88 115.28-15.40L115.28-15.40Q110.84-16.04 108.30-18.30Q105.76-20.56 105.76-23.80L105.76-23.80Q105.76-26.12 106.94-27.90Q108.12-29.68 110.26-30.66Q112.40-31.64 115.20-31.64L115.20-31.64Z M144.72-22.12Q147.88-22.12 150.44-20.66Q153-19.20 154.46-16.64Q155.92-14.08 155.92-10.92L155.92-10.92Q155.92-7.80 154.46-5.24Q153-2.68 150.44-1.22Q147.88 0.24 144.72 0.24L144.72 0.24Q141.88 0.24 139.58-0.98Q137.28-2.20 135.96-4.32L135.96-4.32L135.96 8.16Q135.96 8.72 135.64 9.04Q135.32 9.36 134.76 9.36L134.76 9.36Q134.24 9.36 133.90 9.04Q133.56 8.72 133.56 8.16L133.56 8.16L133.56-11.08L133.56-11.16Q133.60-14.24 135.08-16.76Q136.56-19.28 139.10-20.70Q141.64-22.12 144.72-22.12L144.72-22.12ZM144.72-2Q147.20-2 149.20-3.16Q151.20-4.32 152.36-6.36Q153.52-8.40 153.52-10.92L153.52-10.92Q153.52-13.44 152.36-15.48Q151.20-17.52 149.20-18.70Q147.20-19.88 144.72-19.88L144.72-19.88Q142.24-19.88 140.24-18.70Q138.24-17.52 137.10-15.48Q135.96-13.44 135.96-10.92L135.96-10.92Q135.96-8.40 137.10-6.36Q138.24-4.32 140.24-3.16Q142.24-2 144.72-2L144.72-2Z M173.92-22.12Q177.04-22.12 179.60-20.66Q182.16-19.20 183.62-16.64Q185.08-14.08 185.08-10.92L185.08-10.92L185.08-1.20Q185.08-0.68 184.76-0.34Q184.44 0 183.88 0L183.88 0Q183.36 0 183.02-0.34Q182.68-0.68 182.68-1.20L182.68-1.20L182.68-4.32Q181.36-2.20 179.06-0.98Q176.76 0.24 173.92 0.24L173.92 0.24Q170.76 0.24 168.20-1.22Q165.64-2.68 164.18-5.24Q162.72-7.80 162.72-10.92L162.72-10.92Q162.72-14.08 164.18-16.64Q165.64-19.20 168.20-20.66Q170.76-22.12 173.92-22.12L173.92-22.12ZM173.92-2Q176.40-2 178.40-3.16Q180.40-4.32 181.54-6.36Q182.68-8.40 182.68-10.92L182.68-10.92Q182.68-13.44 181.54-15.48Q180.40-17.52 178.40-18.70Q176.40-19.88 173.92-19.88L173.92-19.88Q171.44-19.88 169.44-18.70Q167.44-17.52 166.28-15.48Q165.12-13.44 165.12-10.92L165.12-10.92Q165.12-8.40 166.28-6.36Q167.44-4.32 169.44-3.16Q171.44-2 173.92-2L173.92-2Z M202.36-22.12Q205.40-22.12 205.40-20.80L205.40-20.80Q205.40-20.60 205.36-20.48L205.36-20.48Q205.24-20.04 204.98-19.86Q204.72-19.68 204.28-19.68L204.28-19.68Q203.92-19.68 203.34-19.76Q202.76-19.84 202.36-19.84L202.36-19.84Q200.36-19.84 198.80-19Q197.24-18.16 196.36-16.68Q195.48-15.20 195.48-13.36L195.48-13.36L195.48-1.20Q195.48-0.68 195.16-0.34Q194.84 0 194.28 0L194.28 0Q193.76 0 193.42-0.34Q193.08-0.68 193.08-1.20L193.08-1.20L193.08-20.68Q193.08-21.24 193.42-21.56Q193.76-21.88 194.28-21.88L194.28-21.88Q194.84-21.88 195.16-21.56Q195.48-21.24 195.48-20.68L195.48-20.68L195.48-18.20Q196.64-20.04 198.44-21.08Q200.24-22.12 202.36-22.12L202.36-22.12Z M229.12-1.76Q229.40-1.44 229.40-1.04L229.40-1.04Q229.40-0.60 228.96-0.20L228.96-0.20Q228.56 0.12 228.24 0.12L228.24 0.12Q227.76 0.12 227.40-0.36L227.40-0.36L218.72-10.96L215-7.56L215-1.20Q215-0.68 214.68-0.34Q214.36 0 213.80 0L213.80 0Q213.28 0 212.94-0.34Q212.60-0.68 212.60-1.20L212.60-1.20L212.60-30.04Q212.60-30.60 212.94-30.92Q213.28-31.24 213.80-31.24L213.80-31.24Q214.36-31.24 214.68-30.92Q215-30.60 215-30.04L215-30.04L215-10.48L227.40-21.76Q227.80-22.08 228.16-22.08L228.16-22.08Q228.56-22.08 228.92-21.68L228.92-21.68Q229.28-21.32 229.28-20.92L229.28-20.92Q229.28-20.52 228.88-20.16L228.88-20.16L220.40-12.44L229.12-1.76Z"/></g>
</svg>
</g><g opacity="1" transform="rotate(0 302.8268 245.6127)">
<svg width="78.1272" height="99.2095" x="302.8268" y="245.6127" version="1.1" preserveAspectRatio="none" viewBox="36.999507904052734 20.000003814697266 126.00028991699219 160.0010223388672">
  <g transform="matrix(1 0 0 1 0 0)"><g><path d="M158.169 141.3c-5.689-15.893-19.063-36.248-38.417-43.217 5.135-3.941 9.206-9.398 11.606-15.582a1.983 1.983 0 0 0 .942.156c5.223-.437 10.609-1.145 14.018-4.504 3.17-3.122 3.459-7.321 3.3-11.394-.104-2.698-.393-5.782-2.519-8.255-.973-1.134-2.297-2.061-3.871-2.755-6.44-25.646-31.148-36.459-51.368-35.713-18.577.716-41.935 11.481-46.626 39.461-.058.343.001.669.107.976-.271.214-.556.408-.811.644-3.78 3.494-5.627 8.997-4.823 14.362.454 3.025 1.666 5.663 3.505 7.63 2.291 2.451 5.773 4.017 9.802 4.41.792.077 1.579.11 2.362.11 2.228 0 4.406-.272 6.539-.576a29.855 29.855 0 0 0 2.659 3.693c3.268 3.854 7.801 7.089 13.47 9.648-11.141 5.403-22.666 15.61-28.871 25.793-5.336 8.403-17.461 32.648-9.589 43.789 2.457 3.477 6.477 5.221 11.998 5.22 2.085 0 4.399-.264 6.91-.762l.067 1.46c.005.079.013.157.025.236.369 2.243 2.497 3.871 5.061 3.871h72.295c2.563 0 4.691-1.628 5.061-3.871a2.33 2.33 0 0 0 .025-.236l.09-1.968c11.06-.927 17.293-3.46 20.165-8.2 3.767-6.219.711-15.468-3.112-24.426zm-74.993-38.897c5.121 1.71 10.283 2.585 15.222 2.585 5.144-.002 10.046-.933 14.401-2.806a31.442 31.442 0 0 0 2.759-1.369c.151.092.294.195.472.246.051.015.1.037.151.051-.389 5.038-3.2 9.93-7.428 12.697-4.547 2.977-10.708 3.503-15.696 1.343-4.987-2.159-8.814-7.012-9.749-12.36a1.144 1.144 0 0 0-.15-.375l.018-.012zm1.457-64.722a2.03 2.03 0 0 0 .516-.133c3.486-1.415 7.182-2.106 10.92-2.106 7.643 0 15.451 2.889 21.932 8.383 3.533 2.995 6.352 6.778 8.345 10.964-20.476.464-35.153-2.954-53.586-12.438 3.415-2.561 7.34-4.122 11.873-4.67zm47.427 20.823c1.388-.117 2.781-.192 4.147-.152a73.118 73.118 0 0 1 1.184 19.614c-1.52.295-3.14.48-4.77.624.093-.358.196-.714.278-1.076 1.414-6.258 1.032-12.858-.839-19.01zm11.986 2.617c1.284 1.495 1.466 3.593 1.551 5.793.143 3.643-.16 6.462-2.104 8.376-.94.927-2.198 1.578-3.64 2.054a75.451 75.451 0 0 0-1.144-18.76c2.35.398 4.276 1.301 5.337 2.537zM92.015 24.055c25.561-1.025 41.59 14.231 46.681 30.462-.043-.005-.084-.015-.127-.02-2.689-.336-5.34-.142-7.92.103-2.25-5.308-5.655-10.118-10.046-13.84-10.723-9.089-24.768-11.774-36.72-7.035-6.151.796-11.454 3.296-15.877 7.392-.091.064-.166.14-.246.219a33.69 33.69 0 0 0-4.72 5.554c-2.234 3.286-3.871 7.041-4.921 11.011-2.733-.816-5.753-.713-8.53.239 5.062-24.095 25.817-33.447 42.426-34.085zm-48.33 50.827c-.6-4.006.803-8.251 3.576-10.813 1.175-1.088 2.604-1.85 4.108-2.293a58.622 58.622 0 0 0-.186 21.359c-2.075-.523-3.819-1.474-5.031-2.77-1.62-1.731-2.236-3.936-2.467-5.483zm10.032 8.648a56.149 56.149 0 0 1 .202-22.185 9.227 9.227 0 0 1 3.358.502 39.63 39.63 0 0 0-.22 10.758c.451 3.821 1.439 7.401 2.883 10.657-2.082.266-4.18.431-6.223.268zm13.928 4.618c-3.572-4.215-5.853-9.753-6.593-16.014-.971-8.21.965-16.588 5.317-22.988a30.974 30.974 0 0 1 3.184-3.932c18.596 9.769 33.349 13.647 53.139 13.647 1.711 0 3.474-.039 5.265-.095 1.914 5.741 2.347 11.975 1.016 17.863-2.196 9.716-9.004 18.092-17.764 21.859-8.468 3.643-19.35 3.263-29.858-1.035-5.912-2.42-10.523-5.551-13.706-9.305zM52.59 128.31c5.98-9.817 17.686-20.002 28.397-24.863 1.158 6.118 5.387 11.437 11.111 13.916a18.954 18.954 0 0 0 7.52 1.541c3.675 0 7.344-1.043 10.458-3.081 4.742-3.103 7.859-8.31 8.467-13.906 17.954 6.535 30.465 25.731 35.88 40.849 1.123 2.635 2.03 4.992 2.735 7.113-4.405-.479-10.58-.4-14.951.19l.841-18.372a5.803 5.803 0 0 0-1.369-4.545c-1.221-1.426-3.038-2.242-4.984-2.242H62.888c-1.944 0-3.761.817-4.982 2.242a5.802 5.802 0 0 0-1.369 4.545l.778 17.005c-3.933-.409-9.69-.8-14.133-.239 2.235-7.125 5.87-14.582 9.408-20.153zm-9.719 39.347c-2.571-3.639-2.237-9.869-.424-16.656 4.492-.797 11.346-.253 14.98.135l.88 19.227c-7.779 1.656-12.985.761-15.436-2.706zm93.069 8.323H63.645c-.632 0-.995-.298-1.075-.458l-2.018-44.105a1.963 1.963 0 0 0-.022-.218c-.102-.649.179-1.137.432-1.432.456-.532 1.157-.837 1.925-.837h73.808c.769 0 1.471.305 1.927.837.253.295.534.784.432 1.432a1.987 1.987 0 0 0-.022.218l-2.018 44.105c-.082.166-.469.458-1.074.458zm21.899-12.337c-2.071 3.42-7.346 5.404-16.538 6.23l.794-17.351c4.493-.665 11.53-.729 15.832-.121 1.453 5.24 1.397 8.792-.088 11.242zM88.54 93.642c-6.027-1.953-10.238-5.95-10.986-10.427-.11-.658.333-1.28.99-1.388a1.2 1.2 0 0 1 1.389.989c.593 3.533 4.262 6.883 9.351 8.533 5.27 1.709 12.034 1.581 17.23-.325 5.015-1.84 8.54-5.323 8.982-8.874a1.192 1.192 0 0 1 1.347-1.047c.662.082 1.13.685 1.048 1.346-.56 4.505-4.6 8.659-10.544 10.84-3.055 1.121-6.519 1.687-9.969 1.687-3.052-.001-6.095-.444-8.838-1.334zm-.718-22.456a2.011 2.011 0 0 1 3.907-.964 13.91 13.91 0 0 1 .294 5.017c.141.762-.192 1.622-.814 2.084a2.12 2.12 0 0 1-1.259.418c-.365 0-.731-.096-1.059-.289a2.012 2.012 0 0 1-.955-2.107 9.805 9.805 0 0 0-.114-4.159zm14.3 4.068.731-4.301c.187-1.096 1.248-1.817 2.32-1.646a2.01 2.01 0 0 1 1.647 2.318l-.731 4.301a2.01 2.01 0 0 1-3.967-.672zm-6.566 68.449c-2.689 1.269-5.095 4.029-6.131 7.034-.805 2.337-.718 4.585.248 6.504 1.031 2.046 3.035 3.543 5.795 4.331 1.347.383 2.799.57 4.232.57 2.482 0 4.907-.558 6.631-1.608v-.002c4.339-2.648 5.589-7.238 3.184-11.69-2.479-4.594-8.38-7.777-13.959-5.139zm8.679 13.398c-1.774 1.085-5.069 1.344-7.663.605-1.625-.463-2.799-1.272-3.305-2.274-.591-1.171-.346-2.489-.036-3.387.677-1.968 2.342-3.904 4.045-4.708a5.658 5.658 0 0 1 2.425-.545c2.609 0 5.086 1.759 6.274 3.96.646 1.195 1.769 4.207-1.74 6.349z" data-color="1" class="icon1"></path></g></g>
</svg>
</g></svg></svg>